<?xml version="1.0" encoding="UTF-8" standalone="no"?>
<!-- Created with Inkscape (http://www.inkscape.org/) -->

<svg
   xmlns:shaper="http://www.shapertools.com/namespaces/shaper"
   xmlns:dc="http://purl.org/dc/elements/1.1/"
   xmlns:cc="http://creativecommons.org/ns#"
   xmlns:rdf="http://www.w3.org/1999/02/22-rdf-syntax-ns#"
   xmlns:svg="http://www.w3.org/2000/svg"
   xmlns="http://www.w3.org/2000/svg"
   xmlns:sodipodi="http://sodipodi.sourceforge.net/DTD/sodipodi-0.dtd"
   xmlns:inkscape="http://www.inkscape.org/namespaces/inkscape"
   width="500mm"
   height="150mm"
   viewBox="0 0 500 150"
   version="1.1"
   id="svg6130"
   inkscape:version="0.92.4 (5da689c313, 2019-01-14)"
   sodipodi:docname="Bultot_Geoffrey_Boitier_Assemblage.svg">
  <defs
     id="defs6124" />
  <sodipodi:namedview
     id="base"
     pagecolor="#ffffff"
     bordercolor="#666666"
     borderopacity="1.0"
     inkscape:pageopacity="0.0"
     inkscape:pageshadow="2"
     inkscape:zoom="0.5"
     inkscape:cx="878.7329"
     inkscape:cy="565.29339"
     inkscape:document-units="mm"
     inkscape:current-layer="layer1"
     showgrid="false"
     inkscape:window-width="1920"
     inkscape:window-height="1017"
     inkscape:window-x="-8"
     inkscape:window-y="-8"
     inkscape:window-maximized="1" />
  <metadata
     id="metadata6127">
    <rdf:RDF>
      <cc:Work
         rdf:about="">
        <dc:format>image/svg+xml</dc:format>
        <dc:type
           rdf:resource="http://purl.org/dc/dcmitype/StillImage" />
        <dc:title />
      </cc:Work>
    </rdf:RDF>
  </metadata>
  <g
     inkscape:label="Calque 1"
     inkscape:groupmode="layer"
     id="layer1"
     transform="translate(0,-147)">
    <path
       id="path3743"
       shaper:pathType="exterior"
       shaper:cutDepth="0.003"
       d="m 60.76065,280.84894 v 3 h 6.062 v -3 h 6.061 v 3 h 6.062003 v -3 h 6.061 v 3 h 6.062 v -3 h 6.061 v 3 h 6.061997 v -3 h 6.061 v 3 h 6.062 v -3 h 6.06101 v 3 h 6.06199 v -3 h 6.061 v 3 h 6.062 v -3 h 6.06101 v 3 h 6.062 v -3 h 6.061 v 3 h 6.062 v -3 h 6.061 v 3 h 6.062 v -3 h 6.061 v 3 h 6.062 v -3 h 6.061 v 3 h 6.062 v -3 h 6.061 v 3 h 6.062 v -3 h 6.061 v 3 h 6.062 v -3 h 6.061 v 3 h 6.062 v -3 h 6.061 v 3 h 6.062 v -3 h 6.061 v 3 h 6.062 v -3 h 6.061 v 3 h 6.062 v -3 h 6.06099 v 3 h 6.062 v -3 h 6.061 v 3 h 6.062 v -3 h 6.061 v 3 h 6.062 v -3 h 6.061 v 3 h 6.062 v -3 h 6.061 v 3 h 6.062 v -3 h 6.061 v 3 h 6.062 v -3 h 6.061 v 3 h 6.062 v -3 h 6.061 v 3 h 6.062 v -3 h 6.061 v 3 h 6.062 v -3 h 6.061 v 3 h 6.062 v -3 h 6.079 v 5 h 3 v 4 h -3 v 5 h -6.079 v -3 h -6.062 v 3 h -6.061 v -3 h -6.062 v 3 h -6.061 v -3 h -6.062 v 3 h -6.061 v -3 h -6.062 v 3 h -6.061 v -3 h -6.062 v 3 h -6.061 v -3 h -6.062 v 3 h -6.061 v -3 h -6.062 v 3 h -6.061 v -3 h -6.062 v 3 h -6.061 v -3 h -6.062 v 3 h -6.061 v -3 h -6.062 v 3 h -6.061 v -3 h -6.062 v 3 h -6.061 v -3 h -6.062 v 3 h -6.061 v -3 h -6.062 v 3 h -6.061 v -3 h -6.062 v 3 h -6.061 v -3 h -6.062 v 3 h -6.061 v -3 h -6.062 v 3 h -6.061 v -3 h -6.062 v 3 h -6.061 v -3 h -6.062 v 3 h -6.061 v -3 h -6.062 v 3 h -6.061 v -3 h -6.062 v 3 h -6.061 v -3 h -6.062 v 3 h -6.061 v -3 h -6.062 v 3 h -6.061 v -3 h -6.062 v 3 h -6.061 v -3 h -6.062 v 3 h -6.061 v -3 h -6.061997 v 3 h -6.061 v -3 h -6.062 v 3 h -6.061 v -3 H 72.88365 v 3 h -6.061 v -3 h -6.062 v 3 h -6.061 v -3 h -6.062 v 3 h -6.061 v -3 h -6.062 v 3 h -6.061 v -3 h -6.062 v 3 h -6.061 v -3 h -6.062 v 3 H 6.2076501 v -5 h -2.985 v -4 h 2.985 v -5 H 12.26865 v 3 h 6.062 v -3 h 6.061 v 3 h 6.062 v -3 h 6.061 v 3 h 6.062 v -3 h 6.061 v 3 h 6.062 v -3 z"
       inkscape:connector-curvature="0"
       style="vector-effect:non-scaling-stroke;fill:#ffffff;stroke:#ff0000;stroke-width:0.01;stroke-miterlimit:4;stroke-dasharray:none;stroke-opacity:1;fill-opacity:1" />
    <path
       id="path6285"
       shaper:pathType="exterior"
       shaper:cutDepth="0.003"
       d="m 12.252668,225.1162 6.062,-0.002 10e-4,3 6.061,-0.002 -10e-4,-3 6.062,-0.002 0.001,3 6.061,-0.002 -10e-4,-3 6.062,-0.002 10e-4,3 6.061,-0.002 -10e-4,-3 6.062,-0.002 0.001,3 6.061,-0.002 -0.001,-3 6.062,-0.002 0.001,3 6.061003,-0.002 -0.001,-3 6.062,-0.002 0.001,3 6.06099,-0.002 -10e-4,-3 6.062,-0.002 0.001,3 6.061002,-0.002 -10e-4,-3 6.061997,-0.002 0.001,3 6.061,-0.002 -0.001,-3 6.062,-0.002 0.001,3 6.061,-0.002 -10e-4,-3 6.062,-0.002 10e-4,3 6.061,-0.002 -10e-4,-3 6.062,-0.002 0.001,3 6.061,-0.002 -0.001,-3 6.062,-0.002 10e-4,3 6.061,-0.002 -0.001,-3 6.062,-0.002 0.001,3 6.061,-0.002 -10e-4,-3 6.062,-0.002 0.001,3 6.061,-0.002 -0.001,-3 6.062,-0.002 10e-4,3 6.061,-0.002 -0.001,-3 6.062,-0.002 0.001,3 6.061,-0.002 -0.001,-3 6.062,-0.002 0.001,3 6.061,-0.002 -0.001,-3 6.062,-0.002 10e-4,3 6.061,-0.002 -0.001,-3 6.062,-0.002 0.001,3 6.061,-0.002 -0.001,-3 6.062,-0.002 0.001,3 6.061,-0.002 -0.001,-3 6.062,-0.002 0.001,3 6.061,-0.002 -10e-4,-3 6.062,-0.002 0.001,3 6.061,-0.002 -10e-4,-3 6.062,-0.002 10e-4,3 6.061,-0.002 -10e-4,-3 6.062,-0.002 10e-4,3 6.061,-0.002 -0.001,-3 6.062,-0.002 10e-4,3 6.061,-0.002 -0.001,-3 6.062,-0.002 0.001,3 6.061,-0.002 -10e-4,-3 6.062,-0.002 0.001,3 6.061,-0.002 -10e-4,-3 6.062,-0.002 0.001,3 6.061,-0.002 -10e-4,-3 6.06199,-0.002 0.001,3 6.061,-0.002 -10e-4,-3 6.062,-0.002 0.001,3 6.061,-0.002 -10e-4,-3 6.062,-0.002 10e-4,3 6.061,-0.002 -10e-4,-3 6.062,-0.002 10e-4,3 6.064,-0.002 v 0.001 l 0.002,6.28599 3,-0.001 0.002,6.285 -3,0.001 0.002,6.28604 3,-0.001 0.002,6.28501 -3,0.001 0.002,6.28598 3,-10e-4 0.002,6.285 -2.99999,0.001 0.002,6.28599 -6.064,0.002 0.001,3.00001 -6.062,0.002 -10e-4,-3 -6.061,0.002 0.001,3 -6.062,0.002 -0.001,-3 -6.061,0.002 10e-4,3 -6.062,0.002 -0.001,-3 -6.061,0.002 10e-4,3 -6.062,0.002 -0.001,-3 -6.061,0.002 10e-4,3 -6.062,0.002 -10e-4,-3 -6.061,0.002 10e-4,3 -6.062,0.002 -10e-4,-3 -6.061,0.002 0.001,3 -6.062,0.002 -10e-4,-3 -6.061,0.002 0.001,3 -6.062,0.002 -0.001,-3 -6.061,0.002 10e-4,3 -6.06199,0.002 -10e-4,-3 -6.061,0.002 0.001,3 -6.06201,0.002 -10e-4,-3 -6.061,0.002 10e-4,3 -6.062,0.002 -10e-4,-3 -6.061,0.002 10e-4,3 -6.062,0.002 -0.001,-3 -6.061,0.002 0.001,3 -6.062,0.002 -0.001,-3 -6.061,0.002 0.001,3 -6.06199,0.002 -0.001,-3 -6.061,0.002 0.001,3 -6.062,0.002 -0.001,-3 -6.061,0.002 10e-4,3 -6.06201,0.002 -0.001,-3 -6.061,0.002 0.001,3 -6.062,0.002 -0.001,-3 -6.061,0.002 0.001,3 -6.062,0.002 -0.001,-3 -6.061,0.002 0.001,3 -6.062,0.002 -0.001,-3 -6.061,0.002 0.001,3 -6.062,0.002 -0.001,-3 -6.061,0.002 0.001,3 -6.062,0.002 -0.001,-3 -6.061,0.002 0.001,3 -6.062,0.002 -0.001,-3 -6.061,0.002 10e-4,3 -6.062,0.002 -10e-4,-3 -6.061,0.002 0.001,3 -6.062,0.002 -0.001,-3 -6.061,0.002 0.001,3 -6.061997,0.002 -10e-4,-3 -6.061002,0.002 0.001,2.99999 -6.062,0.002 -10e-4,-3 -6.061,0.002 0.001,3 -6.062,0.002 -0.001,-3 -6.061003,0.002 0.001,3 -6.062,0.002 -10e-4,-3 -6.061,0.002 10e-4,3 -6.062,0.002 -0.001,-2.99999 -6.061,0.002 0.001,3 -6.062,0.002 -10e-4,-3 -6.061,0.002 0.001,3 -6.062,0.002 -0.001,-3 -6.061,0.002 0.001,3 -6.062,0.002 -10e-4,-3 -6.0609999,0.002 -0.002,-6.28599 -3.0000101,0.001 -0.002,-6.28501 3.0000001,-0.001 -0.002,-6.286 -3.0000101,0.001 -0.002,-6.28502 3.0000001,-0.001 -0.002,-6.28605 -3.0000101,0.001 -0.002,-6.28501 3.0000001,-0.001 -0.002,-6.286 -1e-5,-10e-4 6.0609999,-0.002 z"
       inkscape:connector-curvature="0"
       style="vector-effect:non-scaling-stroke;fill:#ffffff;stroke:#ff0000;stroke-width:0.01;stroke-miterlimit:4;stroke-dasharray:none;stroke-opacity:1;fill-opacity:1" />
    <g
       id="g6322"
       transform="matrix(0.1195799,9.9992847,-9.9992847,0.1195799,425.85902,224.82284)"
       style="fill:#ffffff;stroke:#ff0000;stroke-width:0.001;stroke-miterlimit:4;stroke-dasharray:none;stroke-opacity:1;fill-opacity:1">
      <path
         id="path6308"
         transform="matrix(1,0,0,-1,5.0000001,1.4)"
         shaper:pathType="exterior"
         shaper:cutDepth="0.003"
         d="M -0.9286998,1.1 V 1.4 H 0 V 0.9 H -0.3000001 V 0.5 H 0 V 0 H -0.9286998 V 0.3 H -1.5572001 V 0 H -2.1857998 V 0.3 H -2.8143001 V 0 H -3.4428998 V 0.3 H -4.0714001 V 0 H -5 v 0.5 h 0.2999999 v 0.4 h -0.3 L -5,1.4 h 0.9285999 V 1.1 h 0.6285003 v 0.3 h 0.6285997 V 1.1 h 0.6285003 v 0.3 h 0.6285997 V 1.1 Z"
         inkscape:connector-curvature="0"
         style="vector-effect:non-scaling-stroke;fill:#ffffff;stroke:#ff0000;stroke-width:0.001;stroke-miterlimit:4;stroke-dasharray:none;stroke-opacity:1;fill-opacity:1" />
      <path
         id="path6310"
         transform="matrix(1,0,0,-1,5.0000001,1.4)"
         shaper:pathType="interior"
         shaper:cutDepth="0.003"
         d="M -2.2,0.857 A 0.105895,0.105895 0 0 1 -2.271018,0.9569866 H -2.9307721 A 0.105895,0.105895 109.2297 0 1 -3.00179,0.857 V 0.8069935 A 0.1500042,0.1500042 -180 0 1 -2.85,0.657 h 0.49821 a 0.1515311,0.1515311 -89.684499 0 1 0.1506606,0.1482242 z"
         inkscape:connector-curvature="0"
         style="vector-effect:non-scaling-stroke;fill:#ffffff;stroke:#ff0000;stroke-width:0.001;stroke-miterlimit:4;stroke-dasharray:none;stroke-opacity:1;fill-opacity:1" />
    </g>
    <path
       id="path6334"
       shaper:pathType="exterior"
       shaper:cutDepth="0.003"
       d="m 18.31473,151.02798 v 3 h -6.062 v -3 H 6.1737301 v 5 H 3.1737302 v 4 h 2.9999999 v 5 H 12.25273 v -3 h 6.062 v 3 h 6.061 v -3 h 6.062 v 3 h 6.061 v -3 h 6.062 v 3 h 6.061 v -3 h 6.062 v 3 h 6.061 v -3 h 6.062 v 3 h 6.061 v -3 h 6.062 v 3 h 6.061 v -3 h 6.062 v 3 h 6.061003 v -3 h 6.061997 v 3 h 6.061 v -3 h 6.062 v 3 h 6.061 v -3 h 6.062 v 3 h 6.061 v -3 h 6.062 v 3 h 6.061 v -3 h 6.062 v 3 h 6.061 v -3 h 6.062 v 3 h 6.061 v -3 h 6.062 v 3 h 6.061 v -3 h 6.062 v 3 h 6.061 v -3 h 6.062 v 3 h 6.061 v -3 h 6.062 v 3 h 6.061 v -3 h 6.062 v 3 h 6.061 v -3 h 6.062 v 3 h 6.061 v -3 h 6.062 v 3 h 6.061 v -3 h 6.062 v 3 h 6.061 v -3 h 6.062 v 3 h 6.06099 v -3 h 6.062 v 3 h 6.061 v -3 h 6.062 v 3 h 6.061 v -3 h 6.062 v 3 h 6.061 v -3 h 6.062 v 3 h 6.061 v -3 h 6.062 v 3 h 6.061 v -3 h 6.062 v 3 h 6.061 v -3 h 6.062 v 3 h 6.061 v -3 h 6.062 v 3 h 6.061 v -3 h 6.062 v 3 h 6.061 v -3 h 6.062 v 3 h 6.061 v -5 h 2.985 v -4 h -2.985 v -5 h -6.061 v 3 h -6.062 v -3 h -6.061 v 3 h -6.062 v -3 h -6.061 v 3 h -6.062 v -3 h -6.061 v 3 h -6.062 v -3 h -6.061 v 3 h -6.062 v -3 h -6.061 v 3 h -6.062 v -3 h -6.061 v 3 h -6.062 v -3 h -6.061 v 3 h -6.062 v -3 h -6.061 v 3 h -6.062 v -3 h -6.061 v 3 h -6.062 v -3 h -6.06099 v 3 h -6.062 v -3 h -6.061 v 3 h -6.062 v -3 h -6.061 v 3 h -6.062 v -3 h -6.061 v 3 h -6.062 v -3 h -6.061 v 3 h -6.062 v -3 h -6.061 v 3 h -6.062 v -3 h -6.061 v 3 h -6.062 v -3 h -6.061 v 3 h -6.062 v -3 h -6.061 v 3 h -6.062 v -3 h -6.061 v 3 h -6.062 v -3 h -6.061 v 3 h -6.062 v -3 h -6.061 v 3 h -6.062 v -3 h -6.061 v 3 h -6.062 v -3 h -6.061 v 3 h -6.062 v -3 h -6.061 v 3 h -6.061997 v -3 H 91.05273 v 3 h -6.062 v -3 h -6.061 v 3 h -6.062 v -3 h -6.061 v 3 h -6.062 v -3 h -6.061 v 3 h -6.062 v -3 h -6.061 v 3 h -6.062 v -3 h -6.061 v 3 h -6.062 v -3 z"
       inkscape:connector-curvature="0"
       style="vector-effect:non-scaling-stroke;fill:#ffffff;stroke:#ff0000;stroke-width:0.01;stroke-miterlimit:4;stroke-dasharray:none;stroke-opacity:1;fill-opacity:1" />
    <path
       id="path6355"
       shaper:pathType="exterior"
       shaper:cutDepth="0.003"
       d="m 411.43305,185.89241 2.99979,-0.0358 -0.0751,-6.28455 -2.99978,0.0358 -0.1111,-9.28534 4.99965,-0.0598 0.0357,2.9998 3.99971,-0.0477 -0.0358,-2.9998 4.99964,-0.0598 0.1111,9.28533 -2.99978,0.0357 0.0751,6.28456 2.99979,-0.0358 0.0751,6.28555 -2.99978,0.0358 0.0751,6.28455 2.99979,-0.0357 0.0751,6.28556 -2.99978,0.0357 0.0751,6.28455 2.99979,-0.0357 0.11111,9.28633 -4.99964,0.0598 -0.0358,-2.99979 -3.99971,0.0477 0.0358,2.99978 -4.99964,0.0598 -0.111,-9.28634 2.99978,-0.0358 -0.0751,-6.28455 -2.9998,0.0358 -0.0751,-6.28555 2.99979,-0.0358 -0.0751,-6.28455 -2.99978,0.0358 z"
       inkscape:connector-curvature="0"
       style="vector-effect:non-scaling-stroke;fill:#ffffff;stroke:#ff0000;stroke-width:0.01;stroke-miterlimit:4;stroke-dasharray:none;stroke-opacity:1;fill-opacity:1" />
    <g
       id="g6422"
       transform="matrix(9.9999996,0,0,9.9999996,3.1916831,170.31958)"
       style="fill:#ffffff;fill-opacity:1;stroke:#ff0000;stroke-width:0.001;stroke-miterlimit:4;stroke-dasharray:none;stroke-opacity:1">
      <path
         id="path6390"
         transform="matrix(1,0,0,-1,25.615,3.8000294)"
         shaper:pathType="exterior"
         shaper:cutDepth="0.003"
         d="m 10.447804,3.4999871 1e-6,0.3 0.6062,-7e-7 -10e-7,-0.3 0.6061,-8e-7 v 0.3 l 0.606201,-6e-7 -10e-7,-0.3000001 0.6061,-7e-7 1e-6,0.3 0.606199,-7e-7 V 3.4999832 l 0.6064,-7e-7 -10e-7,-0.6285996 0.3,-4e-7 v -0.6285 h -0.3 l -1e-6,-0.6285996 0.3,-4e-7 -10e-7,-0.6285 h -0.3 l -10e-7,-0.6285996 0.3,-4e-7 v -0.6285 h -0.300001 v -0.6285996 -1.001e-4 l -0.6064,7e-7 v -0.3 l -0.606201,7e-7 10e-7,0.3000001 -0.6061,7e-7 v -0.3000001 l -0.6062,7e-7 v 0.3000001 l -0.6061,7e-7 v -0.3 l -0.606201,7e-7 10e-7,0.3000001 -0.6061001,7e-7 -4e-7,-0.3000001 -0.6062,8e-7 4e-7,0.3 -0.6061,8e-7 -4e-7,-0.3000001 -0.6062,7e-7 4e-7,0.3000001 -0.6061,7e-7 -4e-7,-0.3 -0.6062,7e-7 4e-7,0.3000001 -0.6061,7e-7 -4e-7,-0.3000001 -0.6062,7e-7 4e-7,0.3000001 -0.6061,8e-7 -4e-7,-0.3000001 -0.6062,7e-7 4e-7,0.3000001 -0.6061,7e-7 -4e-7,-0.3000001 -0.6062,8e-7 4e-7,0.3 -0.6061,8e-7 -4e-7,-0.3000001 -0.6062,7e-7 4e-7,0.3000001 -0.6061,7e-7 -4e-7,-0.3 -0.6062,7e-7 4e-7,0.3000001 -0.6061,7e-7 -4e-7,-0.3000001 -0.6062,7e-7 4e-7,0.3000001 -0.6061,8e-7 -4e-7,-0.3000001 -0.6062,7e-7 4e-7,0.3000001 -0.6061,7e-7 -4e-7,-0.3000001 -0.6062,8e-7 4e-7,0.3 -0.6061,8e-7 -4e-7,-0.3000001 -0.6062,7e-7 4e-7,0.3000001 -0.6061,7e-7 -4e-7,-0.3 -0.6062,7e-7 4e-7,0.3000001 -0.6061,7e-7 -4e-7,-0.3000001 -0.6062,7e-7 4e-7,0.3000001 -0.6061,8e-7 -4e-7,-0.3000001 -0.6062,7e-7 4e-7,0.3000001 -0.6061,7e-7 -4e-7,-0.3000001 -0.6062,8e-7 4e-7,0.3 -0.6061,8e-7 -4e-7,-0.3000001 -0.6062005,7e-7 10e-7,0.3000001 -0.6061,7e-7 -1e-6,-0.3 -0.606199,7e-7 v 0.3000001 l -0.6061,7e-7 v -0.3000001 l -0.606201,7e-7 1e-6,0.3000001 -0.6061,8e-7 -1e-6,-0.3000001 -0.606199,7e-7 v 0.3000001 l -0.6061,7e-7 -10e-7,-0.3000001 -0.6062,8e-7 1e-6,0.3 -0.6061,8e-7 -1e-6,-0.3000001 -0.606199,7e-7 v 0.3000001 l -0.6061,7e-7 v -0.3 l -0.6062,7e-7 v 0.3000001 l -0.6061,7e-7 v -0.3000001 l -0.6062,7e-7 v 0.3000001 l -0.6061,8e-7 v -0.3000001 l -0.6062,7e-7 v 0.3000001 l -0.6061,7e-7 -1e-6,-0.3000001 -0.606199,8e-7 v 0.3 l -0.6061,8e-7 v -0.3000001 l -0.606201,7e-7 1e-6,0.3000001 -0.6061,7e-7 v -0.3 l -0.6062,7e-7 v 0.3000001 l -0.6061,7e-7 v -0.3000001 l -0.6062,7e-7 v 0.3000001 l -0.6061,8e-7 10e-7,10e-5 v 0.6286 h -0.3 v 0.6285004 l 0.300001,-4e-7 v 0.6286 h -0.3 l 1e-6,0.6285004 0.300001,-4e-7 v 0.6286 h -0.3 v 0.6285004 l 0.300001,-4e-7 v 0.6285999 l 0.6061,-8e-7 1e-6,0.3 0.6062,-7e-7 -1e-6,-0.3 0.6061,-7e-7 v 0.3 l 0.606201,-7e-7 -10e-7,-0.3 0.6061,-8e-7 1e-6,0.3 0.606199,-7e-7 v -0.3 l 0.6061,-7e-7 10e-7,0.3 0.6062,-8e-7 -1e-6,-0.3 0.6061,-7e-7 1e-6,0.3 0.6062,-6e-7 -10e-7,-0.3000001 0.6061,-8e-7 1e-6,0.3 0.6062,-6e-7 -1e-6,-0.3000001 0.6061,-7e-7 1e-6,0.3 0.606199,-7e-7 v -0.3 l 0.6061,-8e-7 10e-7,0.3 0.606199,-6e-7 V 3.5000185 l 0.6061,-7e-7 10e-7,0.3 0.606199,-7e-7 V 3.500017 l 0.6061,-7e-7 v 0.3 l 0.6062,-6e-7 V 3.5000156 l 0.6061,-8e-7 10e-7,0.3 0.606199,-6e-7 V 3.5000141 l 0.6061,-7e-7 v 0.3 l 0.606201,-7e-7 -10e-7,-0.3 0.6061,-8e-7 v 0.3 l 0.6062005,-6e-7 -3e-7,-0.3000001 0.6061,-7e-7 3e-7,0.3 0.6062,-7e-7 -3e-7,-0.3000001 0.6061,-7e-7 3e-7,0.3 0.6062,-6e-7 -3e-7,-0.3000001 0.6061,-8e-7 3e-7,0.3 0.6062,-6e-7 -3e-7,-0.3000001 0.6061,-7e-7 3e-7,0.3 0.6062,-7e-7 -3e-7,-0.3 0.6061,-8e-7 3e-7,0.3 0.6062,-6e-7 -3e-7,-0.3000001 0.6061,-7e-7 3e-7,0.3 0.6062,-7e-7 -3e-7,-0.3000001 0.6061,-7e-7 3e-7,0.3 0.6062,-6e-7 -3e-7,-0.3000001 0.6061,-8e-7 3e-7,0.3 0.6062,-6e-7 -3e-7,-0.3000001 0.6061,-7e-7 3e-7,0.3 0.6062,-7e-7 -3e-7,-0.3 0.6061,-8e-7 3e-7,0.3 0.6062,-6e-7 -3e-7,-0.3000001 0.6061,-7e-7 3e-7,0.3 0.6062,-7e-7 -3e-7,-0.3000001 0.6061,-7e-7 3e-7,0.3 0.6062,-6e-7 -3e-7,-0.3000001 0.6061,-8e-7 3e-7,0.3 0.6062,-6e-7 -3e-7,-0.3000001 0.6061,-7e-7 3e-7,0.3 0.6062,-7e-7 -3e-7,-0.3 0.6061,-8e-7 3e-7,0.3 0.6062,-6e-7 -3e-7,-0.3000001 0.6061,-7e-7 3e-7,0.3 0.6062,-8e-7 -3e-7,-0.3 z"
         inkscape:connector-curvature="0"
         style="vector-effect:non-scaling-stroke;fill:#ffffff;fill-opacity:1;stroke:#ff0000;stroke-width:0.001;stroke-miterlimit:4;stroke-dasharray:none;stroke-opacity:1" />
      <path
         id="path6392"
         transform="matrix(1,0,0,-1,25.615,3.8000294)"
         shaper:pathType="interior"
         shaper:cutDepth="0.003"
         d="m 0,0 3.1e-6,2.6 a 0.215,0.215 0 0 1 -0.2149997,0.2150003 l -1.6,1.9e-6 A 0.215,0.215 89.999931 0 1 -2.0299969,2.6000025 l -3.1e-6,-2.6 a 0.215,0.215 179.99993 0 1 0.2149997,-0.2150003 l 1.6,-1.9e-6 A 0.215,0.215 -90.000069 0 1 0,0 Z"
         inkscape:connector-curvature="0"
         style="vector-effect:non-scaling-stroke;fill:#ffffff;fill-opacity:1;stroke:#ff0000;stroke-width:0.001;stroke-miterlimit:4;stroke-dasharray:none;stroke-opacity:1" />
      <path
         id="path6394"
         transform="matrix(1,0,0,-1,25.615,3.8000294)"
         shaper:pathType="interior"
         shaper:cutDepth="0.003"
         d="m -22.799997,2.6000278 a 0.215,0.215 0 0 1 -0.215,0.215 l -1.6,1.9e-6 a 0.215,0.215 89.999931 0 1 -0.215,-0.2149998 l -3e-6,-2.6 a 0.215,0.215 179.99993 0 1 0.215,-0.2150002 l 1.6,-2e-6 a 0.215,0.215 -90.000069 0 1 0.215,0.215 z"
         inkscape:connector-curvature="0"
         style="vector-effect:non-scaling-stroke;fill:#ffffff;fill-opacity:1;stroke:#ff0000;stroke-width:0.001;stroke-miterlimit:4;stroke-dasharray:none;stroke-opacity:1" />
      <path
         id="path6396"
         transform="matrix(1,0,0,-1,25.615,3.8000294)"
         shaper:pathType="interior"
         shaper:cutDepth="0.003"
         d="m -5.7,6.9e-6 3.1e-6,2.6 a 0.215,0.215 0 0 1 -0.2149997,0.2150003 l -1.6,1.9e-6 A 0.215,0.215 89.999931 0 1 -7.7299969,2.6000093 l -3.1e-6,-2.6 a 0.215,0.215 179.99993 0 1 0.2149997,-0.2150002 l 1.6,-2e-6 A 0.215,0.215 -90.000069 0 1 -5.7,6.9e-6 Z"
         inkscape:connector-curvature="0"
         style="vector-effect:non-scaling-stroke;fill:#ffffff;fill-opacity:1;stroke:#ff0000;stroke-width:0.001;stroke-miterlimit:4;stroke-dasharray:none;stroke-opacity:1" />
      <path
         id="path6398"
         transform="matrix(1,0,0,-1,25.615,3.8000294)"
         shaper:pathType="interior"
         shaper:cutDepth="0.003"
         d="m 11.4,-1.37e-5 3e-6,2.6 a 0.215,0.215 0 0 1 -0.215,0.2150003 l -1.5999996,1.9e-6 A 0.215,0.215 89.999931 0 1 9.3700031,2.5999888 l -3.1e-6,-2.6 a 0.215,0.215 179.99993 0 1 0.2149997,-0.2150003 l 1.6000003,-2e-6 A 0.215,0.215 -90.000069 0 1 11.4,-1.37e-5 Z"
         inkscape:connector-curvature="0"
         style="vector-effect:non-scaling-stroke;fill:#ffffff;fill-opacity:1;stroke:#ff0000;stroke-width:0.001;stroke-miterlimit:4;stroke-dasharray:none;stroke-opacity:1" />
      <path
         id="path6400"
         transform="matrix(1,0,0,-1,25.615,3.8000294)"
         shaper:pathType="interior"
         shaper:cutDepth="0.003"
         d="m -17.1,2.06e-5 3e-6,2.6 a 0.215,0.215 0 0 1 -0.215,0.2150003 l -1.6,1.9e-6 a 0.215,0.215 89.999931 0 1 -0.215,-0.2149997 l -3e-6,-2.6 a 0.215,0.215 179.99993 0 1 0.215,-0.2150003 l 1.6,-1.9e-6 A 0.215,0.215 -90.000069 0 1 -17.1,2.06e-5 Z"
         inkscape:connector-curvature="0"
         style="vector-effect:non-scaling-stroke;fill:#ffffff;fill-opacity:1;stroke:#ff0000;stroke-width:0.001;stroke-miterlimit:4;stroke-dasharray:none;stroke-opacity:1" />
      <path
         id="path6402"
         transform="matrix(1,0,0,-1,25.615,3.8000294)"
         shaper:pathType="interior"
         shaper:cutDepth="0.003"
         d="m -11.4,1.37e-5 3e-6,2.6000001 a 0.215,0.215 0 0 1 -0.215,0.2150002 l -1.6,2e-6 a 0.215,0.215 89.999931 0 1 -0.215,-0.2149998 l -3e-6,-2.6 a 0.215,0.215 179.99993 0 1 0.215,-0.2150002 l 1.6,-2e-6 A 0.215,0.215 -90.000069 0 1 -11.4,1.37e-5 Z"
         inkscape:connector-curvature="0"
         style="vector-effect:non-scaling-stroke;fill:#ffffff;fill-opacity:1;stroke:#ff0000;stroke-width:0.001;stroke-miterlimit:4;stroke-dasharray:none;stroke-opacity:1" />
      <path
         id="path6404"
         transform="matrix(1,0,0,-1,25.615,3.8000294)"
         shaper:pathType="interior"
         shaper:cutDepth="0.003"
         d="m 5.7,-6.9e-6 3.1e-6,2.6000001 A 0.215,0.215 0 0 1 5.4850034,2.8149934 l -1.6,2e-6 A 0.215,0.215 89.999931 0 1 3.6700031,2.5999956 l -3.1e-6,-2.6 a 0.215,0.215 179.99993 0 1 0.2149997,-0.2150002 l 1.6,-2e-6 A 0.215,0.215 -90.000069 0 1 5.7,-6.9e-6 Z"
         inkscape:connector-curvature="0"
         style="vector-effect:non-scaling-stroke;fill:#ffffff;fill-opacity:1;stroke:#ff0000;stroke-width:0.001;stroke-miterlimit:4;stroke-dasharray:none;stroke-opacity:1" />
    </g>
  </g>
</svg>
