<?xml version="1.0" encoding="utf-8"?>
<!-- Generator: Fusion 360, Shaper Origin Export Add-In, Version 1.5.0  -->
<svg enable-background="new 0 0 5.0000001 40" height="40cm" shaper:fusionaddin="version:1.5.0" version="1.1" viewBox="0 0 5.0000001 40" width="5.0000001cm" x="0cm" xml:space="preserve" xmlns="http://www.w3.org/2000/svg" xmlns:shaper="http://www.shapertools.com/namespaces/shaper" xmlns:xlink="http://www.w3.org/1999/xlink" y="0cm"><path d="M-0.9287001,0.6061001 L-0.9287001,1.2123001 -0.6287001,1.2123001 -0.6287001,1.8184001 -0.9287001,1.8184001 -0.9287001,2.4246001 -0.6287001,2.4246001 -0.6287001,3.0307001 -0.9287001,3.0307001 -0.9287001,3.6369001 -0.6287001,3.6369001 -0.6287001,4.2430001 -0.9287001,4.2430001 -0.9287001,4.8492001 -0.6287001,4.8492001 -0.6287001,5.4553001 -0.9287001,5.4553001 -0.9287001,6.0615001 -0.6287001,6.0615001 -0.6287001,6.6676001 -0.9287001,6.6676001 -0.9287001,7.2738001 -0.6287001,7.2738001 -0.6287001,7.8799001 -0.9287001,7.8799001 -0.9287001,8.4861001 -0.6287001,8.4861001 -0.6287001,9.0922001 -0.9287001,9.0922001 -0.9287001,9.6984001 -0.6287001,9.6984001 -0.6287001,10.3045001 -0.9287001,10.3045001 -0.9287001,10.9107001 -0.6287001,10.9107001 -0.6287001,11.5168001 -0.9287001,11.5168001 -0.9287001,12.1230001 -0.6287001,12.1230001 -0.6287001,12.7291001 -0.9287001,12.7291001 -0.9287001,13.3353001 -0.6287001,13.3353001 -0.6287001,13.9414001 -0.9287001,13.9414001 -0.9287001,14.5476001 -0.6287001,14.5476001 -0.6287001,15.1537001 -0.9287001,15.1537001 -0.9287001,15.7599001 -0.6287001,15.7599001 -0.6287001,16.3660001 -0.9287001,16.3660001 -0.9287001,16.9722001 -0.6287001,16.9722001 -0.6287001,17.5783001 -0.9287001,17.5783001 -0.9287001,18.1845001 -0.6287001,18.1845001 -0.6287001,18.7906001 -0.9287001,18.7906001 -0.9287001,19.3968001 -0.6287001,19.3968001 -0.6287001,20.0029001 -0.9287001,20.0029001 -0.9287001,20.6091001 -0.6287001,20.6091001 -0.6287001,21.2152001 -0.9287001,21.2152001 -0.9287001,21.8214001 -0.6287001,21.8214001 -0.6287001,22.4275001 -0.9287001,22.4275001 -0.9287001,23.0337001 -0.6287001,23.0337001 -0.6287001,23.6398001 -0.9287001,23.6398001 -0.9287001,24.2460001 -0.6287001,24.2460001 -0.6287001,24.8521001 -0.9287001,24.8521001 -0.9287001,25.4583001 -0.6287001,25.4583001 -0.6287001,26.0644001 -0.9287001,26.0644001 -0.9287001,26.6706001 -0.6287001,26.6706001 -0.6287001,27.2767001 -0.9287001,27.2767001 -0.9287001,27.8829001 -0.6287001,27.8829001 -0.6287001,28.4890001 -0.9287001,28.4890001 -0.9287001,29.0952001 -0.6287001,29.0952001 -0.6287001,29.7013001 -0.9287001,29.7013001 -0.9287001,30.3075001 -0.6287001,30.3075001 -0.6287001,30.9136001 -0.9287001,30.9136001 -0.9287001,31.5198001 -0.6287001,31.5198001 -0.6287001,32.1259001 -0.9287001,32.1259001 -0.9287001,32.7321001 -0.6287001,32.7321001 -0.6287001,33.3382001 -0.9287001,33.3382001 -0.9287001,33.9444001 -0.6287001,33.9444001 -0.6287001,34.5505001 -0.9287001,34.5505001 -0.9287001,35.1567001 -0.6287001,35.1567001 -0.6287001,35.7628001 -0.9287001,35.7628001 -0.9287001,36.3690001 -0.6287001,36.3690001 -0.6287001,36.9751001 -0.9287001,36.9751001 -0.9287001,37.5813001 -0.6287001,37.5813001 -0.6287001,38.1874001 -0.9287001,38.1874001 -0.9287001,38.7936001 -0.6287001,38.7936001 -0.6287001,39.4 -0.6286,39.4 -0.0000004,39.3999999 0,39.7 0.6285,39.7 0.6285,39.4 1.2570996,39.3999999 1.2571,39.7 1.8856,39.7 1.8856,39.4 2.5141996,39.3999999 2.5142,39.7 3.1427,39.7 3.1427,39.4 3.7712996,39.3999999 3.7712996,38.7936001 4.0712999,38.7936001 4.0712999,38.1874001 3.7712999,38.1874001 3.7712999,37.5813001 4.0712999,37.5813001 4.0712999,36.9751001 3.7712999,36.9751001 3.7712999,36.3690001 4.0712999,36.3690001 4.0712999,35.7628001 3.7712999,35.7628001 3.7712999,35.1567001 4.0712999,35.1567001 4.0712999,34.5505001 3.7712999,34.5505001 3.7712999,33.9444001 4.0712999,33.9444001 4.0712999,33.3382001 3.7712999,33.3382001 3.7712999,32.7321001 4.0712999,32.7321001 4.0712999,32.1259001 3.7712999,32.1259001 3.7712999,31.5198001 4.0712999,31.5198001 4.0712999,30.9136001 3.7712999,30.9136001 3.7712999,30.3075001 4.0712999,30.3075001 4.0712999,29.7013001 3.7712999,29.7013001 3.7712999,29.0952001 4.0712999,29.0952001 4.0712999,28.4890001 3.7712999,28.4890001 3.7712999,27.8829001 4.0712999,27.8829001 4.0712999,27.2767001 3.7712999,27.2767001 3.7712999,26.6706001 4.0712999,26.6706001 4.0712999,26.0644001 3.7712999,26.0644001 3.7712999,25.4583001 4.0712999,25.4583001 4.0712999,24.8521001 3.7712999,24.8521001 3.7712999,24.2460001 4.0712999,24.2460001 4.0712999,23.6398001 3.7712999,23.6398001 3.7712999,23.0337001 4.0712999,23.0337001 4.0712999,22.4275001 3.7712999,22.4275001 3.7712999,21.8214001 4.0712999,21.8214001 4.0712999,21.2152001 3.7712999,21.2152001 3.7712999,20.6091001 4.0712999,20.6091001 4.0712999,20.0029001 3.7712999,20.0029001 3.7712999,19.3968001 4.0712999,19.3968001 4.0712999,18.7906001 3.7712999,18.7906001 3.7712999,18.1845001 4.0712999,18.1845001 4.0712999,17.5783001 3.7712999,17.5783001 3.7712999,16.9722001 4.0712999,16.9722001 4.0712999,16.3660001 3.7712999,16.3660001 3.7712999,15.7599001 4.0712999,15.7599001 4.0712999,15.1537001 3.7712999,15.1537001 3.7712999,14.5476001 4.0712999,14.5476001 4.0712999,13.9414001 3.7712999,13.9414001 3.7712999,13.3353001 4.0712999,13.3353001 4.0712999,12.7291001 3.7712999,12.7291001 3.7712999,12.1230001 4.0712999,12.1230001 4.0712999,11.5168001 3.7712999,11.5168001 3.7712999,10.9107001 4.0712999,10.9107001 4.0712999,10.3045001 3.7712999,10.3045001 3.7712999,9.6984001 4.0712999,9.6984001 4.0712999,9.0922001 3.7712999,9.0922001 3.7712999,8.4861001 4.0712999,8.4861001 4.0712999,7.8799001 3.7712999,7.8799001 3.7712999,7.2738001 4.0712999,7.2738001 4.0712999,6.6676001 3.7712999,6.6676001 3.7712999,6.0615001 4.0712999,6.0615001 4.0712999,5.4553001 3.7712999,5.4553001 3.7712999,4.8492001 4.0712999,4.8492001 4.0712999,4.2430001 3.7712999,4.2430001 3.7712999,3.6369001 4.0712999,3.6369001 4.0712999,3.0307001 3.7712999,3.0307001 3.7712999,2.4246001 4.0712999,2.4246001 4.0712999,1.8184001 3.7712999,1.8184001 3.7712999,1.2123001 4.0712999,1.2123001 4.0712999,0.6061001 3.7712999,0.6061001 3.7712999,0.0000001 3.1427,0.0000008 3.1427,-0.3 2.5141996,-0.3 2.5142,0 1.8856,0.0000008 1.8856,-0.3 1.2570996,-0.3 1.2571,0 0.6285,0.0000008 0.6285,-0.3 -0.0000004,-0.3 0,0 -0.6286,0.0000008 -0.6287001,0.0000001 -0.6287001,0.6061001 -0.9287001,0.6061001z" fill="rgb(0,0,0)" shaper:cutDepth="0.003" shaper:pathType="exterior" transform="matrix(1,0,0,-1,0.9287001,39.7)" vector-effect="non-scaling-stroke" /></svg>