<?xml version="1.0" encoding="utf-8"?>
<!-- Generator: Fusion 360, Shaper Origin Export Add-In, Version 1.5.0  -->
<svg enable-background="new 0 0 40 1.4" height="1.4cm" shaper:fusionaddin="version:1.5.0" version="1.1" viewBox="0 0 40 1.4" width="40cm" x="0cm" xml:space="preserve" xmlns="http://www.w3.org/2000/svg" xmlns:shaper="http://www.shapertools.com/namespaces/shaper" xmlns:xlink="http://www.w3.org/1999/xlink" y="0cm"><path d="M1.2141,1.4 L1.2141,1.1 0.6079,1.1 0.6079,1.4 0,1.4 0,0.9 -0.3,0.9 -0.3,0.5 0,0.5 -0,-0 0.6079,-0 0.6079,0.3 1.2141,0.3 1.2141,-0 1.8202,-0 1.8202,0.3 2.4264,0.3 2.4264,-0 3.0325,-0 3.0325,0.3 3.6387,0.3 3.6387,-0 4.2448,-0 4.2448,0.3 4.851,0.3 4.851,-0 5.4571,-0 5.4571,0.3 6.0633,0.3 6.0633,-0 6.6694,-0 6.6694,0.3 7.2756,0.3 7.2756,-0 7.8817,-0 7.8817,0.3 8.4879,0.3 8.4879,-0 9.094,-0 9.094,0.3 9.7002,0.3 9.7002,-0 10.3063,-0 10.3063,0.3 10.9125,0.3 10.9125,-0 11.5186,-0 11.5186,0.3 12.1248,0.3 12.1248,-0 12.7309,-0 12.7309,0.3 13.3371,0.3 13.3371,-0 13.9432,-0 13.9432,0.3 14.5494,0.3 14.5494,-0 15.1555,-0 15.1555,0.3 15.7617,0.3 15.7617,-0 16.3678,-0 16.3678,0.3 16.974,0.3 16.974,-0 17.5801,-0 17.5801,0.3 18.1863,0.3 18.1863,-0 18.7924,-0 18.7924,0.3 19.3986,0.3 19.3986,-0 20.0047,-0 20.0047,0.3 20.6109,0.3 20.6109,-0 21.217,-0 21.217,0.3 21.8232,0.3 21.8232,-0 22.4293,-0 22.4293,0.3 23.0355,0.3 23.0355,-0 23.6416,-0 23.6416,0.3 24.2478,0.3 24.2478,-0 24.8539,-0 24.8539,0.3 25.4601,0.3 25.4601,-0 26.0662,-0 26.0662,0.3 26.6724,0.3 26.6724,-0 27.2785,-0 27.2785,0.3 27.8847,0.3 27.8847,-0 28.4908,-0 28.4908,0.3 29.097,0.3 29.097,-0 29.7031,-0 29.7031,0.3 30.3093,0.3 30.3093,-0 30.9154,-0 30.9154,0.3 31.5216,0.3 31.5216,-0 32.1277,-0 32.1277,0.3 32.7339,0.3 32.7339,-0 33.34,-0 33.34,0.3 33.9462,0.3 33.9462,-0 34.5523,-0 34.5523,0.3 35.1585,0.3 35.1585,-0 35.7646,-0 35.7646,0.3 36.3708,0.3 36.3708,-0 36.9769,-0 36.9769,0.3 37.5831,0.3 37.5831,-0 38.1892,-0 38.1892,0.3 38.7954,0.3 38.7954,-0 39.4015,-0 39.4015,0.5 39.7,0.5 39.7,0.9 39.4015,0.9 39.4015,1.4 38.7954,1.4 38.7954,1.1 38.1892,1.1 38.1892,1.4 37.5831,1.4 37.5831,1.1 36.9769,1.1 36.9769,1.4 36.3708,1.4 36.3708,1.1 35.7646,1.1 35.7646,1.4 35.1585,1.4 35.1585,1.1 34.5523,1.1 34.5523,1.4 33.9462,1.4 33.9462,1.1 33.34,1.1 33.34,1.4 32.7339,1.4 32.7339,1.1 32.1277,1.1 32.1277,1.4 31.5216,1.4 31.5216,1.1 30.9154,1.1 30.9154,1.4 30.3093,1.4 30.3093,1.1 29.7031,1.1 29.7031,1.4 29.097,1.4 29.097,1.1 28.4908,1.1 28.4908,1.4 27.8847,1.4 27.8847,1.1 27.2785,1.1 27.2785,1.4 26.6724,1.4 26.6724,1.1 26.0662,1.1 26.0662,1.4 25.4601,1.4 25.4601,1.1 24.8539,1.1 24.8539,1.4 24.2478,1.4 24.2478,1.1 23.6416,1.1 23.6416,1.4 23.0355,1.4 23.0355,1.1 22.4293,1.1 22.4293,1.4 21.8232,1.4 21.8232,1.1 21.217,1.1 21.217,1.4 20.6109,1.4 20.6109,1.1 20.0047,1.1 20.0047,1.4 19.3986,1.4 19.3986,1.1 18.7924,1.1 18.7924,1.4 18.1863,1.4 18.1863,1.1 17.5801,1.1 17.5801,1.4 16.974,1.4 16.974,1.1 16.3678,1.1 16.3678,1.4 15.7617,1.4 15.7617,1.1 15.1555,1.1 15.1555,1.4 14.5494,1.4 14.5494,1.1 13.9432,1.1 13.9432,1.4 13.3371,1.4 13.3371,1.1 12.7309,1.1 12.7309,1.4 12.1248,1.4 12.1248,1.1 11.5186,1.1 11.5186,1.4 10.9125,1.4 10.9125,1.1 10.3063,1.1 10.3063,1.4 9.7002,1.4 9.7002,1.1 9.094,1.1 9.094,1.4 8.4879,1.4 8.4879,1.1 7.8817,1.1 7.8817,1.4 7.2756,1.4 7.2756,1.1 6.6694,1.1 6.6694,1.4 6.0633,1.4 6.0633,1.1 5.4571,1.1 5.4571,1.4 4.851,1.4 4.851,1.1 4.2448,1.1 4.2448,1.4 3.6387,1.4 3.6387,1.1 3.0325,1.1 3.0325,1.4 2.4264,1.4 2.4264,1.1 1.8202,1.1 1.8202,1.4 1.2141,1.4z" fill="rgb(0,0,0)" shaper:cutDepth="0.003" shaper:pathType="exterior" transform="matrix(1,0,0,-1,0.3,1.4)" vector-effect="non-scaling-stroke" /></svg>