<?xml version="1.0" encoding="utf-8"?>
<!-- Generator: Fusion 360, Shaper Origin Export Add-In, Version 1.5.0  -->
<svg enable-background="new 0 0 5.0000001 1.4" height="1.4cm" shaper:fusionaddin="version:1.5.0" version="1.1" viewBox="0 0 5.0000001 1.4" width="5.0000001cm" x="0cm" xml:space="preserve" xmlns="http://www.w3.org/2000/svg" xmlns:shaper="http://www.shapertools.com/namespaces/shaper" xmlns:xlink="http://www.w3.org/1999/xlink" y="0cm"><path d="M-0.9286998,1.1 L-0.9286998,1.4 0,1.4 0,0.9 -0.3000001,0.9 -0.3000001,0.5 0,0.5 0,0 -0.9286998,0 -0.9286998,0.3 -1.5572001,0.3 -1.5572001,0 -2.1857998,0 -2.1857998,0.3 -2.8143001,0.3 -2.8143001,0 -3.4428998,0 -3.4428998,0.3 -4.0714001,0.3 -4.0714001,0 -5,-0 -5,0.5 -4.7000001,0.5 -4.7000001,0.9 -5.0000001,0.9 -5,1.4 -4.0714001,1.4 -4.0714001,1.1 -3.4428998,1.1 -3.4428998,1.4 -2.8143001,1.4 -2.8143001,1.1 -2.1857998,1.1 -2.1857998,1.4 -1.5572001,1.4 -1.5572001,1.1 -0.9286998,1.1z" fill="rgb(0,0,0)" shaper:cutDepth="0.003" shaper:pathType="exterior" transform="matrix(1,0,0,-1,5.0000001,1.4)" vector-effect="non-scaling-stroke" /><path d="M-2.2,0.857 A0.105895,0.105895 0 0,1 -2.2710178,0.9569866 L-2.9307721,0.9569866 A0.105895,0.105895 109.2297019 0,1 -3.00179,0.857 L-3.00179,0.8069935 A0.1500042,0.1500042 180 0,1 -2.85,0.657 L-2.35179,0.657 A0.1515311,0.1515311 270.3155006 0,1 -2.2011294,0.8052242 L-2.2,0.857z" fill="rgb(255,255,255)" shaper:cutDepth="0.003" shaper:pathType="interior" stroke="rgb(0,0,0)" transform="matrix(1,0,0,-1,5.0000001,1.4)" vector-effect="non-scaling-stroke" /></svg>