<?xml version="1.0" encoding="utf-8"?>
<!-- Generator: Fusion 360, Shaper Origin Export Add-In, Version 1.5.0  -->
<svg enable-background="new 0 0 5 1.4" height="1.4cm" shaper:fusionaddin="version:1.5.0" version="1.1" viewBox="0 0 5 1.4" width="5cm" x="0cm" xml:space="preserve" xmlns="http://www.w3.org/2000/svg" xmlns:shaper="http://www.shapertools.com/namespaces/shaper" xmlns:xlink="http://www.w3.org/1999/xlink" y="0cm"><path d="M-3.4428998,-0 L-3.4428998,0.3 -4.0714001,0.3 -4.0714001,-0 -5,-0 -5,0.5 -4.7000001,0.5 -4.7000001,0.9 -5,0.9 -5,1.4 -4.0714001,1.4 -4.0714001,1.1 -3.4428998,1.1 -3.4428998,1.4 -2.8143001,1.4 -2.8143001,1.1 -2.1857998,1.1 -2.1857998,1.4 -1.5572001,1.4 -1.5572001,1.1 -0.9286998,1.1 -0.9286998,1.4 -0,1.4 -0,0.9 -0.3000001,0.9 -0.3000001,0.5 -0,0.5 -0,-0 -0.9286998,-0 -0.9286998,0.3 -1.5572001,0.3 -1.5572001,-0 -2.1857998,-0 -2.1857998,0.3 -2.8143001,0.3 -2.8143001,-0 -3.4428998,-0z" fill="rgb(0,0,0)" shaper:cutDepth="0.003" shaper:pathType="exterior" transform="matrix(1,0,0,-1,5,1.4)" vector-effect="non-scaling-stroke" /></svg>