<?xml version="1.0" encoding="utf-8"?>
<!-- Generator: Fusion 360, Shaper Origin Export Add-In, Version 1.5.0  -->
<svg enable-background="new 0 0 40.0000038 5.000046" height="5.000046cm" shaper:fusionaddin="version:1.5.0" version="1.1" viewBox="0 0 40.0000038 5.000046" width="40.0000038cm" x="0cm" xml:space="preserve" xmlns="http://www.w3.org/2000/svg" xmlns:shaper="http://www.shapertools.com/namespaces/shaper" xmlns:xlink="http://www.w3.org/1999/xlink" y="0cm"><path d="M10.4478042,3.4999871 L10.4478045,3.7999871 11.0540045,3.7999864 11.0540042,3.4999864 11.6601042,3.4999856 11.6601045,3.7999856 12.2663045,3.799985 12.2663042,3.4999849 12.8724042,3.4999842 12.8724045,3.7999842 13.4786045,3.7999835 13.4786042,3.4999832 14.085004,3.4999825 14.0850033,2.8713829 14.3850033,2.8713825 14.3850026,2.2428825 14.0850025,2.2428825 14.0850018,1.6142829 14.3850018,1.6142825 14.3850011,0.9857825 14.085001,0.9857825 14.0850003,0.3571829 14.3850003,0.3571825 14.3849996,-0.2713175 14.0849994,-0.2713175 14.0849988,-0.8999171 14.0849988,-0.9000172 13.4785989,-0.9000165 13.4785985,-1.2000165 12.8723985,-1.2000158 12.8723989,-0.9000157 12.2662989,-0.900015 12.2662985,-1.2000151 11.6600985,-1.2000144 11.6600989,-0.9000143 11.0539989,-0.9000136 11.0539985,-1.2000136 10.4477985,-1.2000129 10.4477989,-0.9000128 9.8416989,-0.9000121 9.8416985,-1.2000122 9.2354985,-1.2000114 9.2354989,-0.9000114 8.6293989,-0.9000106 8.6293985,-1.2000107 8.0231985,-1.20001 8.0231989,-0.9000099 7.4170989,-0.9000092 7.4170985,-1.2000092 6.8108985,-1.2000085 6.8108989,-0.9000084 6.2047989,-0.9000077 6.2047985,-1.2000078 5.5985985,-1.2000071 5.5985989,-0.900007 4.9924989,-0.9000062 4.9924985,-1.2000063 4.3862985,-1.2000056 4.3862989,-0.9000055 3.7801989,-0.9000048 3.7801985,-1.2000049 3.1739985,-1.2000041 3.1739989,-0.9000041 2.5678989,-0.9000033 2.5678985,-1.2000034 1.9616985,-1.2000027 1.9616989,-0.9000026 1.3555989,-0.9000019 1.3555985,-1.2000019 0.7493985,-1.2000012 0.7493989,-0.9000011 0.1432989,-0.9000004 0.1432985,-1.2000005 -0.4629015,-1.1999998 -0.4629011,-0.8999997 -1.0690011,-0.8999989 -1.0690015,-1.199999 -1.6752015,-1.1999983 -1.6752011,-0.8999982 -2.2813011,-0.8999975 -2.2813015,-1.1999976 -2.8875015,-1.1999968 -2.8875011,-0.8999968 -3.4936011,-0.899996 -3.4936015,-1.1999961 -4.0998015,-1.1999954 -4.0998011,-0.8999953 -4.7059011,-0.8999946 -4.7059015,-1.1999946 -5.3121015,-1.1999939 -5.3121011,-0.8999938 -5.9182011,-0.8999931 -5.9182015,-1.1999932 -6.5244015,-1.1999925 -6.5244011,-0.8999924 -7.1305011,-0.8999916 -7.1305015,-1.1999917 -7.7367015,-1.199991 -7.7367011,-0.8999909 -8.3428011,-0.8999902 -8.3428015,-1.1999903 -8.9490015,-1.1999895 -8.9490011,-0.8999895 -9.5551011,-0.8999887 -9.5551015,-1.1999888 -10.1613015,-1.1999881 -10.1613011,-0.899988 -10.7674011,-0.8999873 -10.7674015,-1.1999873 -11.3736015,-1.1999866 -11.3736011,-0.8999865 -11.9797011,-0.8999858 -11.9797015,-1.1999859 -12.5859015,-1.1999852 -12.5859011,-0.8999851 -13.1920011,-0.8999843 -13.1920015,-1.1999844 -13.7982015,-1.1999837 -13.7982011,-0.8999836 -14.4043011,-0.8999829 -14.4043015,-1.199983 -15.0105015,-1.1999822 -15.0105011,-0.8999822 -15.6166011,-0.8999814 -15.6166015,-1.1999815 -16.2228015,-1.1999808 -16.2228011,-0.8999807 -16.8289011,-0.89998 -16.8289015,-1.19998 -17.4351015,-1.1999793 -17.4351011,-0.8999792 -18.0412011,-0.8999785 -18.0412015,-1.1999786 -18.6474015,-1.1999779 -18.6474011,-0.8999778 -19.2535011,-0.899977 -19.2535015,-1.1999771 -19.8597015,-1.1999764 -19.8597011,-0.8999763 -20.4658011,-0.8999756 -20.4658015,-1.1999757 -21.0720015,-1.1999749 -21.0720011,-0.8999749 -21.6781011,-0.8999741 -21.6781015,-1.1999742 -22.2843015,-1.1999735 -22.2843011,-0.8999734 -22.8904011,-0.8999727 -22.8904015,-1.1999727 -23.4966015,-1.199972 -23.4966011,-0.8999719 -24.1027011,-0.8999712 -24.1027015,-1.1999713 -24.7089015,-1.1999706 -24.7089011,-0.8999705 -25.3150011,-0.8999697 -25.3150004,-0.8998697 -25.3150004,-0.2712697 -25.6150004,-0.2712697 -25.6149997,0.3572307 -25.3149989,0.3572303 -25.3149989,0.9858303 -25.6149989,0.9858303 -25.6149982,1.6143307 -25.3149974,1.6143303 -25.3149974,2.2429303 -25.6149974,2.2429303 -25.6149967,2.8714307 -25.3149959,2.8714303 -25.3149959,3.5000302 -24.7088958,3.5000294 -24.7088955,3.8000294 -24.1026955,3.8000287 -24.1026958,3.5000287 -23.4965958,3.500028 -23.4965955,3.800028 -22.8903955,3.8000273 -22.8903958,3.5000273 -22.2842958,3.5000265 -22.2842955,3.8000265 -21.6780955,3.8000258 -21.6780958,3.5000258 -21.0719958,3.5000251 -21.0719955,3.8000251 -20.4657955,3.8000243 -20.4657958,3.5000243 -19.8596958,3.5000236 -19.8596955,3.8000236 -19.2534955,3.800023 -19.2534958,3.5000229 -18.6473958,3.5000221 -18.6473955,3.8000221 -18.0411955,3.8000215 -18.0411958,3.5000214 -17.4350958,3.5000207 -17.4350955,3.8000207 -16.8288955,3.80002 -16.8288958,3.50002 -16.2227958,3.5000192 -16.2227955,3.8000192 -15.6165955,3.8000186 -15.6165958,3.5000185 -15.0104958,3.5000178 -15.0104955,3.8000178 -14.4042955,3.8000171 -14.4042958,3.500017 -13.7981958,3.5000163 -13.7981955,3.8000163 -13.1919955,3.8000157 -13.1919958,3.5000156 -12.5858958,3.5000148 -12.5858955,3.8000148 -11.9796955,3.8000142 -11.9796958,3.5000141 -11.3735958,3.5000134 -11.3735955,3.8000134 -10.7673955,3.8000127 -10.7673958,3.5000127 -10.1612958,3.5000119 -10.1612955,3.8000119 -9.5550955,3.8000113 -9.5550958,3.5000112 -8.9489958,3.5000105 -8.9489955,3.8000105 -8.3427955,3.8000098 -8.3427958,3.5000097 -7.7366958,3.500009 -7.7366955,3.800009 -7.1304955,3.8000084 -7.1304958,3.5000083 -6.5243958,3.5000075 -6.5243955,3.8000075 -5.9181955,3.8000069 -5.9181958,3.5000068 -5.3120958,3.5000061 -5.3120955,3.8000061 -4.7058955,3.8000054 -4.7058958,3.5000054 -4.0997958,3.5000046 -4.0997955,3.8000046 -3.4935955,3.800004 -3.4935958,3.5000039 -2.8874958,3.5000032 -2.8874955,3.8000032 -2.2812955,3.8000025 -2.2812958,3.5000024 -1.6751958,3.5000017 -1.6751955,3.8000017 -1.0689955,3.8000011 -1.0689958,3.500001 -0.4628958,3.5000002 -0.4628955,3.8000002 0.1433045,3.7999996 0.1433042,3.4999995 0.7494042,3.4999988 0.7494045,3.7999988 1.3556045,3.7999981 1.3556042,3.4999981 1.9617042,3.4999973 1.9617045,3.7999973 2.5679045,3.7999967 2.5679042,3.4999966 3.1740042,3.4999959 3.1740045,3.7999959 3.7802045,3.7999952 3.7802042,3.4999951 4.3863042,3.4999944 4.3863045,3.7999944 4.9925045,3.7999938 4.9925042,3.4999937 5.5986042,3.4999929 5.5986045,3.7999929 6.2048045,3.7999923 6.2048042,3.4999922 6.8109042,3.4999915 6.8109045,3.7999915 7.4171045,3.7999908 7.4171042,3.4999908 8.0232042,3.49999 8.0232045,3.79999 8.6294045,3.7999894 8.6294042,3.4999893 9.2355042,3.4999886 9.2355045,3.7999886 9.8417045,3.7999878 9.8417042,3.4999878 10.4478042,3.4999871z" fill="rgb(0,0,0)" shaper:cutDepth="0.003" shaper:pathType="exterior" transform="matrix(1,0,0,-1,25.6150004,3.8000294)" vector-effect="non-scaling-stroke" /><path d="M-0,0 L0.0000031,2.6 A0.215,0.215 0 0,1 -0.2149966,2.8150003 L-1.8149966,2.8150022 A0.215,0.215 89.999931 0,1 -2.0299969,2.6000025 L-2.03,0.0000025 A0.215,0.215 179.999931 0,1 -1.8150003,-0.2149978 L-0.2150003,-0.2149997 A0.215,0.215 269.999931 0,1 0,0.0000003z" fill="rgb(255,255,255)" shaper:cutDepth="0.003" shaper:pathType="interior" stroke="rgb(0,0,0)" transform="matrix(1,0,0,-1,25.6150004,3.8000294)" vector-effect="non-scaling-stroke" /><path d="M-22.7999969,2.6000278 A0.215,0.215 0 0,1 -23.0149966,2.8150278 L-24.6149966,2.8150297 A0.215,0.215 89.999931 0,1 -24.8299969,2.6000299 L-24.83,0.0000299 A0.215,0.215 179.999931 0,1 -24.6150003,-0.2149703 L-23.0150003,-0.2149723 A0.215,0.215 269.999931 0,1 -22.8,0.0000277 L-22.7999969,2.6000275z" fill="rgb(255,255,255)" shaper:cutDepth="0.003" shaper:pathType="interior" stroke="rgb(0,0,0)" transform="matrix(1,0,0,-1,25.6150004,3.8000294)" vector-effect="non-scaling-stroke" /><path d="M-5.7,0.0000069 L-5.6999969,2.6000069 A0.215,0.215 0 0,1 -5.9149966,2.8150072 L-7.5149966,2.8150091 A0.215,0.215 89.999931 0,1 -7.7299969,2.6000093 L-7.73,0.0000093 A0.215,0.215 179.999931 0,1 -7.5150003,-0.2149909 L-5.9150003,-0.2149929 A0.215,0.215 269.999931 0,1 -5.7,0.0000071z" fill="rgb(255,255,255)" shaper:cutDepth="0.003" shaper:pathType="interior" stroke="rgb(0,0,0)" transform="matrix(1,0,0,-1,25.6150004,3.8000294)" vector-effect="non-scaling-stroke" /><path d="M11.4,-0.0000137 L11.4000031,2.5999863 A0.215,0.215 0 0,1 11.1850034,2.8149866 L9.5850034,2.8149885 A0.215,0.215 89.999931 0,1 9.3700031,2.5999888 L9.37,-0.0000112 A0.215,0.215 179.999931 0,1 9.5849997,-0.2150115 L11.1849997,-0.2150135 A0.215,0.215 269.999931 0,1 11.4,-0.0000135z" fill="rgb(255,255,255)" shaper:cutDepth="0.003" shaper:pathType="interior" stroke="rgb(0,0,0)" transform="matrix(1,0,0,-1,25.6150004,3.8000294)" vector-effect="non-scaling-stroke" /><path d="M-17.1,0.0000206 L-17.0999969,2.6000206 A0.215,0.215 0 0,1 -17.3149966,2.8150209 L-18.9149966,2.8150228 A0.215,0.215 89.999931 0,1 -19.1299969,2.6000231 L-19.13,0.0000231 A0.215,0.215 179.999931 0,1 -18.9150003,-0.2149772 L-17.3150003,-0.2149791 A0.215,0.215 269.999931 0,1 -17.1,0.0000209z" fill="rgb(255,255,255)" shaper:cutDepth="0.003" shaper:pathType="interior" stroke="rgb(0,0,0)" transform="matrix(1,0,0,-1,25.6150004,3.8000294)" vector-effect="non-scaling-stroke" /><path d="M-11.4,0.0000137 L-11.3999969,2.6000138 A0.215,0.215 0 0,1 -11.6149966,2.815014 L-13.2149966,2.815016 A0.215,0.215 89.999931 0,1 -13.4299969,2.6000162 L-13.43,0.0000162 A0.215,0.215 179.999931 0,1 -13.2150003,-0.214984 L-11.6150003,-0.214986 A0.215,0.215 269.999931 0,1 -11.4,0.000014z" fill="rgb(255,255,255)" shaper:cutDepth="0.003" shaper:pathType="interior" stroke="rgb(0,0,0)" transform="matrix(1,0,0,-1,25.6150004,3.8000294)" vector-effect="non-scaling-stroke" /><path d="M5.7,-0.0000069 L5.7000031,2.5999932 A0.215,0.215 0 0,1 5.4850034,2.8149934 L3.8850034,2.8149954 A0.215,0.215 89.999931 0,1 3.6700031,2.5999956 L3.67,-0.0000044 A0.215,0.215 179.999931 0,1 3.8849997,-0.2150046 L5.4849997,-0.2150066 A0.215,0.215 269.999931 0,1 5.7,-0.0000066z" fill="rgb(255,255,255)" shaper:cutDepth="0.003" shaper:pathType="interior" stroke="rgb(0,0,0)" transform="matrix(1,0,0,-1,25.6150004,3.8000294)" vector-effect="non-scaling-stroke" /></svg>